# xmcd CD database file
#
# Track frame offsets:
#	150
#	24375
#	34735
#	49960
#	67942
#	96077
#	112615
#	130353
#	144482
#	157039
#	166143
#	181631
#	196510
#	209907
#
# Disc length: 2971 seconds
#
# Revision: 3
# Processed by: cddbd v1.5.2PL0 Copyright (c) Steve Scherf et al.
# Submitted via: CDex 1.51
#
DISCID=b60b990e
DTITLE=The Many Faces Of ERIC CLAPTON - The Many Faces Of  Eric Clapton
DYEAR=2016
DGENRE=Blues
TTITLE0=How Long Blues  - Come Back Baby(Pinetop Perkins Feat. Eric Clapton)
TTITLE1=West Coast Idea(Eric Clapton)
TTITLE2=Knockin' On Heaven's Door(Arthur Louis Feat. Eric Clapton)
TTITLE3=Take A Trip(Toots and The Maytals Feat. Eric Clapton)
TTITLE4=Sending Me Angels(Jerry Lynn Williams Feat. Eric Clapton)
TTITLE5=On Me Way To Georgia(Corky Laing Feat. Eric Clapton)
TTITLE6=Weeping Willow(Chris Barber Feat. Eric Clapton)
TTITLE7=Graggin' My Tail(Eric Clapton and Jimmy Page)
TTITLE8=Good Morning Little Schoolgirl(The Yardbirds Feat. Eric Clapton)
TTITLE9=I Ain't Got You(The Yardbirds Feat. Eric Clapton)
TTITLE10=Come And Love Me(Arthur Louis Feat. Eric Clapton)
TTITLE11=Lonely Years(John Mayall Feat. Eric Clapton)
TTITLE12=Pressure Drop(Toots and The Maytals Feat. Eric Clapton)
TTITLE13=Freight Loader(Eric Clapton and Jimmy Page)
EXTD=YEAR: 2016
EXTT0=
EXTT1=
EXTT2=
EXTT3=
EXTT4=
EXTT5=
EXTT6=
EXTT7=
EXTT8=
EXTT9=
EXTT10=
EXTT11=
EXTT12=
EXTT13=
PLAYORDER=
